<svg width="698" height="698" viewBox="0 0 698 698" fill="none" xmlns="http://www.w3.org/2000/svg">
<path d="M350.4 234.538C413.522 234.538 464.695 285.94 464.696 349.347C464.696 351.562 464.626 353.771 464.503 355.955C460.626 363.922 456.141 371.882 451.089 379.751C446.846 378.553 442.367 377.913 437.743 377.913C410.583 377.915 388.566 400.033 388.566 427.317C388.567 433.453 389.691 439.328 391.728 444.749C382.85 451.709 373.76 457.899 364.596 463.28C359.947 463.858 355.205 464.16 350.4 464.16C287.279 464.158 236.109 412.754 236.107 349.347C236.109 285.941 287.279 234.54 350.4 234.538Z" fill="#394867"/>
<path fill-rule="evenodd" clip-rule="evenodd" d="M344.304 98.3687C390.998 98.3687 433.477 108.645 471.745 129.192C510.364 149.385 540.912 178.433 563.381 216.339C585.85 253.891 597.083 297.646 597.083 347.597C597.083 397.548 585.85 441.831 563.381 480.445C540.912 518.705 510.893 548.464 473.328 569.72C435.762 590.621 394.684 601.073 350.096 601.073C305.86 601.073 264.433 590.266 225.813 568.656C187.194 547.046 156.297 517.112 133.126 478.851C109.955 440.237 98.3687 396.661 98.3687 348.127C98.3687 299.593 109.605 256.373 132.075 218.467C154.544 180.206 184.562 150.624 222.128 129.722C260.044 108.821 300.77 98.3687 344.304 98.3687ZM495.78 197.278C443.48 144.745 334.087 169.479 251.434 252.504C168.785 335.53 144.181 445.416 196.465 497.95C242.757 544.447 333.771 530.403 411.386 468.991C419.001 473.854 428.033 476.685 437.724 476.686C464.885 476.685 486.903 454.566 486.905 427.282C486.905 416.578 483.505 406.673 477.746 398.583C529.586 324.082 539.197 240.906 495.78 197.278Z" fill="#394867"/>
</svg>
